<?xml version="1.0" encoding="utf-8"?>
<!-- Generator: Adobe Illustrator 16.0.4, SVG Export Plug-In . SVG Version: 6.00 Build 0)  -->
<!DOCTYPE svg PUBLIC "-//W3C//DTD SVG 1.1//EN" "http://www.w3.org/Graphics/SVG/1.1/DTD/svg11.dtd">
<svg version="1.1" id="Layer_1" xmlns="http://www.w3.org/2000/svg" xmlns:xlink="http://www.w3.org/1999/xlink" x="0px" y="0px"
	 width="640px" height="280px" viewBox="0 0 640 280" enable-background="new 0 0 640 280" xml:space="preserve">
<path fill="#81D379" d="M571.666,161.214c-6.016,4.771-13.736,6.839-21.33,5.72c0.359-2.438,0.719-4.877,1.078-7.314
	c5.576,0.822,11.24-0.698,15.656-4.199C568.604,157.352,570.135,159.283,571.666,161.214z"/>
<path fill="#A17AED" d="M69.134,149.778c6.016-4.771,13.735-6.839,21.33-5.72c-0.36,2.438-0.72,4.877-1.079,7.314
	c-5.575-0.822-11.24,0.698-15.656,4.199C72.197,153.641,70.666,151.709,69.134,149.778z"/>
<path fill="#81D379" d="M309.425,188.003c-0.382-7.667,2.425-15.151,7.752-20.678c1.774,1.712,3.549,3.421,5.323,5.132
	c-3.911,4.057-5.97,9.55-5.689,15.178C314.348,187.758,311.887,187.881,309.425,188.003z"/>
<path fill="#81D379" d="M212.834,127.604c3.418-6.874,9.526-12.028,16.877-14.242c0.71,2.36,1.421,4.72,2.132,7.08
	c-5.396,1.625-9.879,5.408-12.388,10.454C217.247,129.798,215.041,128.701,212.834,127.604z"/>
<path fill="#81D379" d="M45.975,209.213c-6.874-3.418-12.028-9.527-14.242-16.877c2.36-0.711,4.72-1.422,7.08-2.133
	c1.625,5.396,5.408,9.879,10.454,12.389C48.17,204.799,47.072,207.006,45.975,209.213z"/>
<path fill="#81D379" d="M94.042,87.89c-6.874-3.418-12.028-9.526-14.242-16.877c2.36-0.71,4.72-1.421,7.08-2.132
	c1.625,5.396,5.408,9.879,10.454,12.388C96.236,83.476,95.139,85.683,94.042,87.89z"/>
<path fill="#FF7BAC" d="M199.877,227.89c-6.874-3.418-12.028-9.526-14.242-16.877c2.36-0.71,4.72-1.421,7.08-2.132
	c1.625,5.396,5.408,9.879,10.454,12.388C202.072,223.477,200.974,225.683,199.877,227.89z"/>
<path fill="#A17AED" d="M487.23,117.39c-6.873-3.418-12.027-9.526-14.242-16.877c2.361-0.71,4.721-1.421,7.08-2.132
	c1.625,5.396,5.408,9.879,10.455,12.388C489.426,112.976,488.328,115.183,487.23,117.39z"/>
<path fill="#A17AED" d="M421.048,221.766c3.418-6.874,9.526-12.028,16.877-14.242c0.71,2.36,1.421,4.72,2.132,7.08
	c-5.396,1.625-9.879,5.408-12.388,10.454C425.461,223.961,423.255,222.863,421.048,221.766z"/>
<path fill="#FF7BAC" d="M344.162,83.86c3.418-6.874,9.526-12.028,16.877-14.242c0.71,2.36,1.421,4.72,2.132,7.08
	c-5.396,1.625-9.879,5.408-12.388,10.454C348.575,86.055,346.369,84.957,344.162,83.86z"/>
<path fill="#A17AED" d="M202.169,58.507c6.016-4.77,13.735-6.839,21.33-5.72c-0.36,2.438-0.72,4.876-1.079,7.315
	c-5.575-0.822-11.24,0.698-15.656,4.199C205.231,62.369,203.7,60.438,202.169,58.507z"/>
<path fill="#FF7BAC" d="M7.276,113.473c6.016-4.77,13.735-6.839,21.33-5.72c-0.36,2.438-0.72,4.876-1.079,7.315
	c-5.575-0.822-11.24,0.698-15.656,4.199C10.339,117.335,8.808,115.404,7.276,113.473z"/>
<path fill="#FF7BAC" d="M590.72,210.496c6.016-4.77,13.735-6.84,21.33-5.72c-0.36,2.438-0.72,4.876-1.079,7.315
	c-5.575-0.822-11.24,0.697-15.656,4.199C593.782,214.358,592.251,212.428,590.72,210.496z"/>
<path fill="#FF7BAC" d="M546.056,69.729c6.016-4.77,13.735-6.839,21.33-5.72c-0.36,2.438-0.72,4.876-1.079,7.315
	c-5.575-0.822-11.24,0.698-15.656,4.199C549.118,73.591,547.587,71.66,546.056,69.729z"/>
<path fill="#A17AED" d="M625.081,108.896c5.282,5.571,8.025,13.078,7.58,20.742c-2.461-0.144-4.921-0.286-7.382-0.429
	c0.327-5.626-1.687-11.134-5.564-15.224C621.504,112.288,623.292,110.592,625.081,108.896z"/>
</svg>
