<?xml version="1.0" encoding="utf-8"?>
<!-- Generator: Adobe Illustrator 16.0.4, SVG Export Plug-In . SVG Version: 6.00 Build 0)  -->
<!DOCTYPE svg PUBLIC "-//W3C//DTD SVG 1.1//EN" "http://www.w3.org/Graphics/SVG/1.1/DTD/svg11.dtd" [
	<!ENTITY ns_flows "http://ns.adobe.com/Flows/1.0/">
	<!ENTITY ns_extend "http://ns.adobe.com/Extensibility/1.0/">
	<!ENTITY ns_ai "http://ns.adobe.com/AdobeIllustrator/10.0/">
	<!ENTITY ns_graphs "http://ns.adobe.com/Graphs/1.0/">
	<!ENTITY ns_vars "http://ns.adobe.com/Variables/1.0/">
	<!ENTITY ns_imrep "http://ns.adobe.com/ImageReplacement/1.0/">
	<!ENTITY ns_sfw "http://ns.adobe.com/SaveForWeb/1.0/">
	<!ENTITY ns_custom "http://ns.adobe.com/GenericCustomNamespace/1.0/">
	<!ENTITY ns_adobe_xpath "http://ns.adobe.com/XPath/1.0/">
]>
<svg version="1.1" id="Layer_1" xmlns:x="&ns_extend;" xmlns:i="&ns_ai;" xmlns:graph="&ns_graphs;"
	 xmlns="http://www.w3.org/2000/svg" xmlns:xlink="http://www.w3.org/1999/xlink" xmlns:a="http://ns.adobe.com/AdobeSVGViewerExtensions/3.0/"
	 x="0px" y="0px" width="100px" height="40px" viewBox="0 0 100 40" enable-background="new 0 0 100 40" xml:space="preserve">
<metadata><?xpacket begin="﻿" id="W5M0MpCehiHzreSzNTczkc9d"?>
<x:xmpmeta xmlns:x="adobe:ns:meta/" x:xmptk="Adobe XMP Core 5.3-c011 66.145661, 2012/02/06-14:56:27        ">
   <rdf:RDF xmlns:rdf="http://www.w3.org/1999/02/22-rdf-syntax-ns#">
      <rdf:Description rdf:about=""
            xmlns:dc="http://purl.org/dc/elements/1.1/">
         <dc:format>image/svg+xml</dc:format>
         <dc:title>
            <rdf:Alt>
               <rdf:li xml:lang="x-default">logo-font-white</rdf:li>
            </rdf:Alt>
         </dc:title>
      </rdf:Description>
      <rdf:Description rdf:about=""
            xmlns:xmp="http://ns.adobe.com/xap/1.0/"
            xmlns:xmpGImg="http://ns.adobe.com/xap/1.0/g/img/">
         <xmp:CreatorTool>Adobe Illustrator CS6 (Macintosh)</xmp:CreatorTool>
         <xmp:CreateDate>2018-01-27T12:11:35+01:00</xmp:CreateDate>
         <xmp:ModifyDate>2018-01-27T12:11:35+01:00</xmp:ModifyDate>
         <xmp:MetadataDate>2018-01-27T12:11:35+01:00</xmp:MetadataDate>
         <xmp:Thumbnails>
            <rdf:Alt>
               <rdf:li rdf:parseType="Resource">
                  <xmpGImg:width>256</xmpGImg:width>
                  <xmpGImg:height>80</xmpGImg:height>
                  <xmpGImg:format>JPEG</xmpGImg:format>
                  <xmpGImg:image>/9j/4AAQSkZJRgABAgEASABIAAD/7QAsUGhvdG9zaG9wIDMuMAA4QklNA+0AAAAAABAASAAAAAEA&#xA;AQBIAAAAAQAB/+4ADkFkb2JlAGTAAAAAAf/bAIQABgQEBAUEBgUFBgkGBQYJCwgGBggLDAoKCwoK&#xA;DBAMDAwMDAwQDA4PEA8ODBMTFBQTExwbGxscHx8fHx8fHx8fHwEHBwcNDA0YEBAYGhURFRofHx8f&#xA;Hx8fHx8fHx8fHx8fHx8fHx8fHx8fHx8fHx8fHx8fHx8fHx8fHx8fHx8fHx8f/8AAEQgAUAEAAwER&#xA;AAIRAQMRAf/EAaIAAAAHAQEBAQEAAAAAAAAAAAQFAwIGAQAHCAkKCwEAAgIDAQEBAQEAAAAAAAAA&#xA;AQACAwQFBgcICQoLEAACAQMDAgQCBgcDBAIGAnMBAgMRBAAFIRIxQVEGE2EicYEUMpGhBxWxQiPB&#xA;UtHhMxZi8CRygvElQzRTkqKyY3PCNUQnk6OzNhdUZHTD0uIIJoMJChgZhJRFRqS0VtNVKBry4/PE&#xA;1OT0ZXWFlaW1xdXl9WZ2hpamtsbW5vY3R1dnd4eXp7fH1+f3OEhYaHiImKi4yNjo+Ck5SVlpeYmZ&#xA;qbnJ2en5KjpKWmp6ipqqusra6voRAAICAQIDBQUEBQYECAMDbQEAAhEDBCESMUEFURNhIgZxgZEy&#xA;obHwFMHR4SNCFVJicvEzJDRDghaSUyWiY7LCB3PSNeJEgxdUkwgJChgZJjZFGidkdFU38qOzwygp&#xA;0+PzhJSktMTU5PRldYWVpbXF1eX1RlZmdoaWprbG1ub2R1dnd4eXp7fH1+f3OEhYaHiImKi4yNjo&#xA;+DlJWWl5iZmpucnZ6fkqOkpaanqKmqq6ytrq+v/aAAwDAQACEQMRAD8A9U4q7FXYq7FXYq7FXYq7&#xA;FXYq7FXYq7FXYq7FXYq7FXYq7FXYq7FXYq7FXYq7FXYq7FXYq7FXYq7FXYq7FXYq7FXYq7FXYq7F&#xA;XYq7FXYq7FXYq7FXYq7FXYq7FXYq7FXYq7FXYq7FXYq7FXYq7FXYq7FXYq7FXYq7FXYq7FXYq7FX&#xA;Yq7FXYq7FXYq7FXYq7FXYq7FXYq7FXYq7FXYq7FXYq7FXYq7FXYq7FXYq7FXYq7FXYq7FXYq7FXY&#xA;q7FXYq7FXYq7FXYq7FXYq7FXYq7FXYq7FXYq7FXYq7FXYq7FXYq7FXYq7FXYq7FXYq7FXYq7FXYq&#xA;7FXYq7FXYq7FXYq7FXYq7FXYq7FXYq7FXYq7FXYq7FXYq7FXYq7FXYq7FXYq7FXYq7FXYq7FXYq7&#xA;FXYq7FXYq7FXYq7FXYq7FXYq7FXYq7FXYq7FXYq7FXYq7FXYq7FXYq7FXYq7FXYq7FXYq7FXYq7F&#xA;XYq7FXYq7FXYq7FXYq7FXYq7FXYq7FXYq7FXYq7FXYq7FXYq7FXYq7FXYq7FXYq7FXYq7FXYq7FX&#xA;Yq7FXYq7FXYq7FXYq7FXYq7FXYq7FXYq7FXYq7FXYq7FXYq7FXYq7FXYq7FXYq7FXYq7FXYq7FXY&#xA;q7FXYq7FXYq7FXYq7FXYq7FXYq7FXYq7FXYq7FXYq7FXYq7FXYq7FXYq7FXYq7FXYq7FXYq7FXYq&#xA;7FXYq7FXYq7FXYq7FXYq7FXYq7FXYq7FXYq7FXYq7FXYq7FXYq7FXYq7FXYq7FXYq7FXYq7FXYq7&#xA;FXYq7FXYq7FXYq7FXYq7FX//2Q==</xmpGImg:image>
               </rdf:li>
            </rdf:Alt>
         </xmp:Thumbnails>
      </rdf:Description>
      <rdf:Description rdf:about=""
            xmlns:xmpMM="http://ns.adobe.com/xap/1.0/mm/"
            xmlns:stRef="http://ns.adobe.com/xap/1.0/sType/ResourceRef#"
            xmlns:stEvt="http://ns.adobe.com/xap/1.0/sType/ResourceEvent#">
         <xmpMM:RenditionClass>proof:pdf</xmpMM:RenditionClass>
         <xmpMM:OriginalDocumentID>uuid:65E6390686CF11DBA6E2D887CEACB407</xmpMM:OriginalDocumentID>
         <xmpMM:DocumentID>xmp.did:5620F214FF206811822AFDA19D9D47EA</xmpMM:DocumentID>
         <xmpMM:InstanceID>xmp.iid:5620F214FF206811822AFDA19D9D47EA</xmpMM:InstanceID>
         <xmpMM:DerivedFrom rdf:parseType="Resource">
            <stRef:instanceID>xmp.iid:FE35AB3D48206811822AFDA19D9D47EA</stRef:instanceID>
            <stRef:documentID>xmp.did:FE35AB3D48206811822AFDA19D9D47EA</stRef:documentID>
            <stRef:originalDocumentID>uuid:65E6390686CF11DBA6E2D887CEACB407</stRef:originalDocumentID>
            <stRef:renditionClass>proof:pdf</stRef:renditionClass>
         </xmpMM:DerivedFrom>
         <xmpMM:History>
            <rdf:Seq>
               <rdf:li rdf:parseType="Resource">
                  <stEvt:action>saved</stEvt:action>
                  <stEvt:instanceID>xmp.iid:FC35AB3D48206811822AFDA19D9D47EA</stEvt:instanceID>
                  <stEvt:when>2018-01-27T11:01:24+01:00</stEvt:when>
                  <stEvt:softwareAgent>Adobe Illustrator CS6 (Macintosh)</stEvt:softwareAgent>
                  <stEvt:changed>/</stEvt:changed>
               </rdf:li>
               <rdf:li rdf:parseType="Resource">
                  <stEvt:action>saved</stEvt:action>
                  <stEvt:instanceID>xmp.iid:5620F214FF206811822AFDA19D9D47EA</stEvt:instanceID>
                  <stEvt:when>2018-01-27T12:11:35+01:00</stEvt:when>
                  <stEvt:softwareAgent>Adobe Illustrator CS6 (Macintosh)</stEvt:softwareAgent>
                  <stEvt:changed>/</stEvt:changed>
               </rdf:li>
            </rdf:Seq>
         </xmpMM:History>
      </rdf:Description>
      <rdf:Description rdf:about=""
            xmlns:illustrator="http://ns.adobe.com/illustrator/1.0/">
         <illustrator:StartupProfile>Web</illustrator:StartupProfile>
      </rdf:Description>
      <rdf:Description rdf:about=""
            xmlns:xmpTPg="http://ns.adobe.com/xap/1.0/t/pg/"
            xmlns:stDim="http://ns.adobe.com/xap/1.0/sType/Dimensions#"
            xmlns:xmpG="http://ns.adobe.com/xap/1.0/g/">
         <xmpTPg:NPages>1</xmpTPg:NPages>
         <xmpTPg:HasVisibleTransparency>False</xmpTPg:HasVisibleTransparency>
         <xmpTPg:HasVisibleOverprint>False</xmpTPg:HasVisibleOverprint>
         <xmpTPg:MaxPageSize rdf:parseType="Resource">
            <stDim:w>100.000000</stDim:w>
            <stDim:h>40.000000</stDim:h>
            <stDim:unit>Pixels</stDim:unit>
         </xmpTPg:MaxPageSize>
         <xmpTPg:SwatchGroups>
            <rdf:Seq>
               <rdf:li rdf:parseType="Resource">
                  <xmpG:groupName>Default Swatch Group</xmpG:groupName>
                  <xmpG:groupType>0</xmpG:groupType>
               </rdf:li>
            </rdf:Seq>
         </xmpTPg:SwatchGroups>
      </rdf:Description>
      <rdf:Description rdf:about=""
            xmlns:pdf="http://ns.adobe.com/pdf/1.3/">
         <pdf:Producer>Adobe PDF library 10.01</pdf:Producer>
      </rdf:Description>
   </rdf:RDF>
</x:xmpmeta>
                                                                                                    
                                                                                                    
                                                                                                    
                                                                                                    
                                                                                                    
                                                                                                    
                                                                                                    
                                                                                                    
                                                                                                    
                                                                                                    
                                                                                                    
                                                                                                    
                                                                                                    
                                                                                                    
                                                                                                    
                                                                                                    
                                                                                                    
                                                                                                    
                                                                                                    
                                                                                                    
                           
<?xpacket end="w"?>
	</metadata>
<g>
	<g enable-background="new    ">
		<path fill="#FFFFFF" d="M2.718,17.87c0-0.438,0.268-0.814,0.803-1.131c0.535-0.316,1.083-0.475,1.643-0.475
			c0.608,0,0.998,0.231,1.168,0.693l4.052,11.354l3.103-10.076c0.17-0.56,0.621-0.84,1.351-0.84c0.73,0,1.18,0.28,1.351,0.84
			l3.066,10.149l4.089-11.427c0.146-0.462,0.523-0.693,1.132-0.693c0.535,0,1.077,0.158,1.625,0.475
			c0.548,0.316,0.822,0.706,0.822,1.168c0,0.195-0.049,0.39-0.146,0.584l-5.659,14.822c-0.195,0.511-0.707,0.767-1.534,0.767
			c-0.828,0-1.351-0.244-1.57-0.73l-3.176-9.419l-3.14,9.31c-0.219,0.56-0.767,0.84-1.643,0.84c-0.803,0-1.314-0.28-1.533-0.84
			L2.864,18.491C2.766,18.199,2.718,17.992,2.718,17.87z"/>
		<path fill="#FFFFFF" d="M28.674,26.742v-3.469c0-1.922,0.742-3.583,2.227-4.983c1.484-1.398,3.273-2.099,5.367-2.099
			c1.996,0,3.706,0.633,5.129,1.899s2.136,2.864,2.136,4.793c0,0.745-0.085,1.347-0.256,1.805c-0.17,0.46-0.438,0.782-0.803,0.969
			c-0.365,0.186-0.707,0.304-1.022,0.354c-0.316,0.05-0.73,0.074-1.241,0.074h-7.703v0.846c0,1.227,0.438,2.201,1.314,2.925
			c0.876,0.723,2.02,1.085,3.432,1.085c0.998,0,1.94-0.232,2.829-0.699c0.888-0.465,1.43-0.698,1.625-0.698
			c0.414,0,0.767,0.195,1.059,0.586s0.438,0.77,0.438,1.136c0,0.602-0.584,1.209-1.752,1.822s-2.604,0.92-4.308,0.92
			c-2.482,0-4.515-0.669-6.097-2.008C29.465,30.661,28.674,28.908,28.674,26.742z M32.507,23.639h6.06
			c0.535,0,0.895-0.072,1.077-0.216s0.274-0.431,0.274-0.862c0-0.958-0.353-1.771-1.059-2.442c-0.707-0.671-1.583-1.007-2.629-1.007
			c-1.022,0-1.898,0.318-2.628,0.952c-0.73,0.636-1.095,1.443-1.095,2.426V23.639z"/>
		<path fill="#FFFFFF" d="M46.964,32.438V7.356c0-0.365,0.176-0.663,0.529-0.895c0.353-0.231,0.809-0.347,1.369-0.347
			c0.535,0,0.991,0.115,1.369,0.347c0.377,0.231,0.566,0.529,0.566,0.895v25.081c0,0.316-0.195,0.608-0.584,0.876
			s-0.839,0.401-1.351,0.401c-0.536,0-0.986-0.134-1.351-0.401C47.147,33.046,46.964,32.754,46.964,32.438z"/>
		<path fill="#FFFFFF" d="M55.178,32.438V7.356c0-0.365,0.17-0.663,0.512-0.895c0.34-0.231,0.791-0.347,1.351-0.347
			s1.028,0.115,1.405,0.347s0.566,0.529,0.566,0.895v16.246l7.63-7.01c0.22-0.219,0.487-0.328,0.804-0.328
			c0.413,0,0.826,0.194,1.24,0.584s0.621,0.803,0.621,1.241c0,0.316-0.109,0.584-0.328,0.803l-4.71,4.198L70,31.342
			c0.146,0.219,0.219,0.438,0.219,0.657c0,0.438-0.243,0.87-0.729,1.296c-0.487,0.426-0.962,0.639-1.424,0.639
			c-0.414,0-0.755-0.183-1.022-0.547l-5.366-7.923l-2.665,2.41v4.563c0,0.316-0.195,0.608-0.584,0.876
			c-0.391,0.268-0.853,0.401-1.388,0.401c-0.536,0-0.979-0.134-1.333-0.401C55.354,33.046,55.178,32.754,55.178,32.438z"/>
		<path fill="#FFFFFF" d="M72.336,10.058c0-0.56,0.22-1.034,0.658-1.424c0.438-0.389,0.961-0.584,1.569-0.584
			s1.132,0.195,1.569,0.584c0.438,0.39,0.658,0.864,0.658,1.424c0,0.536-0.22,1.004-0.658,1.406
			c-0.438,0.401-0.961,0.602-1.569,0.602s-1.132-0.2-1.569-0.602C72.556,11.062,72.336,10.594,72.336,10.058z M72.665,32.438V17.651
			c0-0.365,0.177-0.663,0.529-0.895c0.353-0.23,0.81-0.347,1.369-0.347s1.022,0.116,1.388,0.347
			c0.365,0.231,0.547,0.529,0.547,0.895v14.786c0,0.316-0.188,0.608-0.565,0.876c-0.378,0.268-0.834,0.401-1.369,0.401
			c-0.536,0-0.985-0.134-1.351-0.401S72.665,32.754,72.665,32.438z"/>
		<path fill="#FFFFFF" d="M80.514,32.438V17.651c0-0.365,0.177-0.663,0.529-0.895c0.354-0.23,0.81-0.347,1.369-0.347
			c0.487,0,0.895,0.117,1.224,0.351c0.329,0.234,0.493,0.536,0.493,0.905v1.329c0.389-0.787,1.016-1.451,1.88-1.992
			c0.863-0.541,1.868-0.812,3.012-0.812c1.728,0,3.218,0.706,4.472,2.117c1.254,1.412,1.881,3.104,1.881,5.074v9.055
			c0,0.39-0.189,0.699-0.566,0.931s-0.834,0.347-1.369,0.347c-0.486,0-0.925-0.115-1.314-0.346c-0.389-0.23-0.584-0.54-0.584-0.929
			v-9.03c0-0.971-0.365-1.845-1.095-2.622c-0.729-0.776-1.595-1.165-2.593-1.165c-0.924,0-1.74,0.346-2.445,1.038
			c-0.706,0.692-1.059,1.608-1.059,2.749v9.03c0,0.316-0.195,0.607-0.584,0.874c-0.39,0.267-0.84,0.4-1.352,0.4
			c-0.535,0-0.985-0.134-1.35-0.401C80.697,33.046,80.514,32.754,80.514,32.438z"/>
	</g>
</g>
</svg>
